<svg version="1.1" id="Layer_1" xmlns="http://www.w3.org/2000/svg" xmlns:xlink="http://www.w3.org/1999/xlink" x="0px" y="0px"
	 width="100%" viewBox="0 0 86 88" enable-background="new 0 0 86 88" xml:space="preserve">
<path fill="#FFFFFF" opacity="1.000000" stroke="none" 
	d="
M57.000000,89.000000 
	C38.000004,89.000000 19.500010,89.000000 1.000010,89.000000 
	C1.000007,59.666679 1.000007,30.333357 1.000003,1.000026 
	C29.666649,1.000017 58.333298,1.000017 86.999954,1.000009 
	C86.999969,30.333307 86.999969,59.666615 86.999985,88.999962 
	C77.166664,89.000000 67.333336,89.000000 57.000000,89.000000 
M69.041199,48.578362 
	C70.368584,45.840706 72.465042,43.206398 72.849922,40.342098 
	C73.487572,35.596722 73.324722,30.676006 72.890892,25.884228 
	C72.686874,23.630781 71.659546,20.591101 69.974815,19.502491 
	C65.809540,16.811054 60.999672,15.135962 56.564831,12.829432 
	C55.488701,12.269745 54.649574,10.950224 54.089569,9.792386 
	C53.583103,8.745241 53.606602,7.441773 53.601116,7.410716 
	C48.088173,9.047095 43.129086,10.986107 37.987328,11.929999 
	C31.179184,13.179797 24.664339,16.547079 22.667618,22.268684 
	C19.861448,30.309769 19.371346,39.404301 19.341072,48.053383 
	C19.328197,51.732399 22.633890,55.696987 25.161669,58.967396 
	C26.088873,60.166992 29.133980,59.687363 31.195240,60.069435 
	C32.324867,60.278820 33.404839,60.902210 34.529072,60.968616 
	C38.825737,61.222401 39.727493,63.493683 38.696011,67.281151 
	C38.387333,68.414566 38.648327,69.703110 38.648327,70.920586 
	C39.185413,71.012169 39.722496,71.103745 40.259583,71.195328 
	C41.086006,68.895599 41.912434,66.595863 42.738861,64.296135 
	C42.801704,64.726723 42.864548,65.157303 42.927391,65.587883 
	C47.925323,64.517754 53.720203,64.665878 57.710541,62.055504 
	C62.247684,59.087425 65.172379,53.654495 69.041199,48.578362 
z"/>
<path fill="#EE272F" opacity="1.000000" stroke="none" 
	d="
M68.919586,48.935680 
	C65.172379,53.654495 62.247684,59.087425 57.710541,62.055504 
	C53.720203,64.665878 47.925323,64.517754 42.927391,65.587883 
	C42.864548,65.157303 42.801704,64.726723 42.738861,64.296135 
	C41.912434,66.595863 41.086006,68.895599 40.259583,71.195328 
	C39.722496,71.103745 39.185413,71.012169 38.648327,70.920586 
	C38.648327,69.703110 38.387333,68.414566 38.696011,67.281151 
	C39.727493,63.493683 38.825737,61.222401 34.529072,60.968616 
	C33.404839,60.902210 32.324867,60.278820 31.195240,60.069435 
	C29.133980,59.687363 26.088873,60.166992 25.161669,58.967396 
	C22.633890,55.696987 19.328197,51.732399 19.341072,48.053383 
	C19.371346,39.404301 19.861448,30.309769 22.667618,22.268684 
	C24.664339,16.547079 31.179184,13.179797 37.987328,11.929999 
	C43.129086,10.986107 48.088173,9.047095 53.601116,7.410716 
	C53.606602,7.441773 53.583103,8.745241 54.089569,9.792386 
	C54.649574,10.950224 55.488701,12.269745 56.564831,12.829432 
	C60.999672,15.135962 65.809540,16.811054 69.974815,19.502491 
	C71.659546,20.591101 72.686874,23.630781 72.890892,25.884228 
	C73.324722,30.676006 73.487572,35.596722 72.849922,40.342098 
	C72.465042,43.206398 70.368584,45.840706 68.919586,48.935680 
M36.270638,56.979393 
	C38.496788,55.666115 42.199886,54.762959 42.697823,52.969780 
	C45.071609,44.421230 46.616131,35.639057 48.336166,26.916433 
	C48.558765,25.787598 48.535278,24.057297 47.856796,23.402922 
	C45.396919,21.030457 42.501549,19.115568 39.975498,16.804003 
	C37.367310,14.417268 34.314468,15.396904 32.662144,16.980461 
	C28.784515,20.696712 23.321182,23.529907 23.737259,30.408991 
	C23.888748,32.913593 22.361176,35.472668 22.099482,38.057487 
	C20.959932,49.313194 24.076487,57.446396 36.270638,56.979393 
M64.808739,20.758871 
	C61.546078,18.854433 58.283417,16.949995 54.256878,14.599679 
	C53.524120,23.597855 55.476715,29.451727 62.490715,33.138634 
	C67.493477,35.768333 67.213104,38.685482 62.471279,41.754913 
	C54.893925,46.659801 47.613346,51.961159 43.672535,61.497456 
	C45.421288,61.614876 46.623028,61.782413 47.821419,61.761169 
	C53.325195,61.663601 56.614376,58.512970 60.293671,54.554237 
	C66.124062,48.281036 70.926872,42.177418 70.012123,33.094513 
	C69.829895,31.285080 69.812469,29.421423 70.022400,27.618084 
	C70.438118,24.046881 68.872482,21.980936 64.808739,20.758871 
M58.764084,40.240917 
	C60.147278,39.364174 61.530472,38.487431 62.559944,37.834900 
	C58.900784,34.367104 55.301399,30.955961 51.448906,27.304943 
	C49.764683,34.232410 48.004055,41.474121 46.243431,48.715832 
	C46.603973,48.872906 46.964516,49.029984 47.325054,49.187061 
	C50.960392,46.365623 54.595730,43.544186 58.764084,40.240917 
M50.813057,20.628845 
	C50.813057,18.870728 50.813057,17.112612 50.813057,15.360013 
	C48.714275,15.360013 46.903114,15.360013 43.487312,15.360013 
	C46.419079,17.803925 48.225536,19.309782 50.813057,20.628845 
z"/>
<path fill="#FFFDFD" opacity="1.000000" stroke="none" 
	d="
M35.844494,56.979492 
	C24.076487,57.446396 20.959932,49.313194 22.099482,38.057487 
	C22.361176,35.472668 23.888748,32.913593 23.737259,30.408991 
	C23.321182,23.529907 28.784515,20.696712 32.662144,16.980461 
	C34.314468,15.396904 37.367310,14.417268 39.975498,16.804003 
	C42.501549,19.115568 45.396919,21.030457 47.856796,23.402922 
	C48.535278,24.057297 48.558765,25.787598 48.336166,26.916433 
	C46.616131,35.639057 45.071609,44.421230 42.697823,52.969780 
	C42.199886,54.762959 38.496788,55.666115 35.844494,56.979492 
z"/>
<path fill="#FFFAFA" opacity="1.000000" stroke="none" 
	d="
M65.176605,20.897236 
	C68.872482,21.980936 70.438118,24.046881 70.022400,27.618084 
	C69.812469,29.421423 69.829895,31.285080 70.012123,33.094513 
	C70.926872,42.177418 66.124062,48.281036 60.293671,54.554237 
	C56.614376,58.512970 53.325195,61.663601 47.821419,61.761169 
	C46.623028,61.782413 45.421288,61.614876 43.672535,61.497456 
	C47.613346,51.961159 54.893925,46.659801 62.471279,41.754913 
	C67.213104,38.685482 67.493477,35.768333 62.490715,33.138634 
	C55.476715,29.451727 53.524120,23.597855 54.256878,14.599679 
	C58.283417,16.949995 61.546078,18.854433 65.176605,20.897236 
z"/>
<path fill="#FEF9F9" opacity="1.000000" stroke="none" 
	d="
M58.497574,40.481834 
	C54.595730,43.544186 50.960392,46.365623 47.325054,49.187061 
	C46.964516,49.029984 46.603973,48.872906 46.243431,48.715832 
	C48.004055,41.474121 49.764683,34.232410 51.448906,27.304943 
	C55.301399,30.955961 58.900784,34.367104 62.559944,37.834900 
	C61.530472,38.487431 60.147278,39.364174 58.497574,40.481834 
z"/>
<path fill="#FEF5F5" opacity="1.000000" stroke="none" 
	d="
M50.422523,20.722240 
	C48.225536,19.309782 46.419079,17.803925 43.487312,15.360013 
	C46.903114,15.360013 48.714275,15.360013 50.813057,15.360013 
	C50.813057,17.112612 50.813057,18.870728 50.422523,20.722240 
z"/>
</svg>